<?xml version="1.0" standalone="no"?>
<!DOCTYPE svg PUBLIC "-//W3C//DTD SVG 20010904//EN"
 "http://www.w3.org/TR/2001/REC-SVG-20010904/DTD/svg10.dtd">
<svg version="1.0" xmlns="http://www.w3.org/2000/svg"
 width="512.000000pt" height="512.000000pt" viewBox="0 0 512.000000 512.000000"
 preserveAspectRatio="xMidYMid meet">

<g transform="translate(0.000000,512.000000) scale(0.100000,-0.100000)"
fill="#060827" stroke="none">
<path d="M2430 5113 c-101 -9 -204 -27 -280 -48 -116 -31 -220 -68 -220 -79 0
-13 112 -276 120 -281 5 -3 27 2 51 11 106 37 234 65 355 76 368 33 728 -93
993 -347 152 -146 266 -327 331 -524 58 -180 60 -204 60 -919 0 -451 -3 -668
-11 -700 -17 -70 -80 -198 -136 -277 -135 -189 -386 -406 -694 -598 -184 -115
-301 -157 -439 -157 -138 0 -255 42 -439 157 -386 241 -656 496 -776 734 -66
129 -65 121 -65 806 l0 620 -68 6 c-37 4 -108 7 -158 7 l-91 0 -7 -46 c-10
-76 -7 -1080 4 -1197 20 -204 93 -375 246 -573 72 -93 216 -239 322 -327 l72
-60 0 -416 0 -416 -271 -135 c-149 -74 -273 -138 -275 -142 -3 -4 27 -70 66
-148 l70 -140 363 182 362 183 5 402 5 403 65 -42 c97 -61 235 -125 325 -150
68 -19 106 -22 245 -22 139 0 177 3 245 22 90 25 228 89 325 150 l65 42 5
-403 5 -402 360 -182 c198 -100 362 -182 365 -182 11 -2 144 279 136 286 -4 4
-127 69 -274 143 l-267 135 -3 416 -2 416 74 62 c165 136 333 324 420 468 89
149 130 271 146 429 12 123 12 1095 1 1264 -17 234 -63 407 -167 615 -243 491
-708 815 -1256 874 -91 10 -229 12 -308 4z"/>
<path d="M1513 4736 c-91 -76 -170 -153 -162 -159 2 -1 47 -41 99 -87 52 -46
105 -93 117 -104 l23 -19 72 69 c40 38 88 81 106 95 l33 25 -91 127 c-50 70
-95 127 -100 127 -4 0 -48 -33 -97 -74z"/>
<path d="M1102 4203 c-49 -107 -94 -236 -84 -245 4 -3 68 -23 142 -43 74 -20
140 -38 147 -40 7 -2 21 23 34 63 12 37 35 93 50 124 16 32 29 62 29 67 0 5
-44 33 -97 62 -54 28 -116 62 -139 75 l-41 24 -41 -87z"/>
<path d="M2745 3199 l-499 -430 -188 188 -188 188 -112 -113 -113 -112 290
-290 c159 -159 293 -290 297 -290 8 0 1222 1040 1226 1051 5 11 -190 239 -203
238 -5 0 -235 -194 -510 -430z"/>
</g>
</svg>
