<?xml version="1.0" standalone="no"?>
<!DOCTYPE svg PUBLIC "-//W3C//DTD SVG 20010904//EN"
 "http://www.w3.org/TR/2001/REC-SVG-20010904/DTD/svg10.dtd">
<svg version="1.0" xmlns="http://www.w3.org/2000/svg"
 width="281.000000pt" height="180.000000pt" viewBox="0 0 281.000000 180.000000"
 preserveAspectRatio="xMidYMid meet">

<g transform="translate(0.000000,180.000000) scale(0.100000,-0.100000)"
fill="#000000" stroke="none">
<path d="M1303 1658 c-327 -25 -695 -218 -1027 -537 -136 -132 -206 -216 -206
-250 0 -51 186 -247 390 -410 376 -301 774 -429 1136 -366 354 62 770 320
1070 663 94 107 95 118 15 209 -188 218 -450 427 -681 543 -238 120 -457 166
-697 148z m250 -143 c179 -27 365 -103 557 -229 150 -98 336 -256 427 -363
l46 -54 -94 -96 c-291 -295 -592 -476 -891 -537 -100 -21 -286 -21 -386 0
-299 61 -600 242 -891 537 l-94 96 36 45 c43 52 193 191 287 266 130 104 287
198 423 255 209 86 382 110 580 80z"/>
<path d="M1289 1286 c-204 -59 -339 -264 -309 -473 33 -238 261 -406 496 -366
281 48 439 353 317 612 -37 78 -126 164 -210 203 -58 28 -81 33 -158 35 -53 1
-109 -3 -136 -11z m185 -131 c110 -29 191 -110 216 -216 43 -180 -99 -359
-285 -359 -83 0 -143 26 -207 90 -82 82 -106 176 -74 284 31 104 113 180 216
202 73 16 67 16 134 -1z"/>
</g>
</svg>
