<?xml version="1.0" standalone="no"?>
<!DOCTYPE svg PUBLIC "-//W3C//DTD SVG 20010904//EN"
 "http://www.w3.org/TR/2001/REC-SVG-20010904/DTD/svg10.dtd">
<svg version="1.0" xmlns="http://www.w3.org/2000/svg"
 width="305.000000pt" height="165.000000pt" viewBox="0 0 305.000000 165.000000"
 preserveAspectRatio="xMidYMid meet">

<g transform="translate(0.000000,165.000000) scale(0.100000,-0.100000)"
fill="#000000" stroke="none">
<path d="M556 1629 c-19 -15 -26 -30 -26 -56 0 -39 20 -62 142 -156 37 -29 67
-54 68 -57 0 -3 -26 -18 -57 -34 -210 -102 -472 -288 -621 -439 l-63 -64 93
-83 c374 -333 783 -540 1208 -611 96 -15 342 -16 445 0 72 11 316 70 355 85
10 4 60 -30 144 -99 79 -65 136 -105 150 -105 39 0 76 37 76 75 0 35 3 32
-164 176 l-30 26 100 50 c210 105 433 263 622 439 l53 50 -89 86 c-293 282
-719 512 -1112 600 -93 20 -131 23 -325 23 -242 0 -290 -7 -502 -71 -62 -19
-117 -34 -122 -34 -5 0 -65 47 -133 103 -156 129 -165 133 -212 96z m1109
-244 c328 -26 735 -208 1074 -479 47 -38 88 -70 90 -72 11 -9 -216 -182 -342
-260 -104 -64 -290 -160 -327 -169 -21 -4 -49 14 -170 116 -80 66 -149 124
-154 129 -5 5 -2 25 7 47 57 143 11 329 -108 442 -133 126 -323 154 -487 73
l-58 -29 -76 64 -76 63 28 11 c42 15 178 46 264 58 118 18 181 19 335 6z
m-672 -234 c48 -40 87 -75 87 -77 0 -3 -9 -23 -21 -46 -29 -57 -51 -171 -44
-227 38 -276 295 -442 559 -361 36 11 86 36 111 55 25 19 48 35 51 35 9 0 233
-184 234 -191 0 -4 -26 -14 -57 -22 -181 -51 -446 -62 -644 -27 -233 40 -514
157 -744 308 -111 73 -312 229 -304 236 2 1 42 34 89 71 119 96 304 215 444
286 103 52 121 58 135 46 9 -7 55 -46 104 -86z m588 -53 c95 -56 149 -135 156
-233 6 -64 -1 -115 -15 -115 -16 0 -424 341 -417 349 20 19 79 30 151 28 66
-3 89 -8 125 -29z m-152 -308 l211 -175 -23 -18 c-38 -30 -153 -60 -200 -53
-122 19 -198 70 -244 164 -23 47 -28 70 -28 132 1 48 7 89 18 113 20 46 -9 64
266 -163z"/>
</g>
</svg>
