<?xml version="1.0" standalone="no"?>
<!DOCTYPE svg PUBLIC "-//W3C//DTD SVG 20010904//EN"
 "http://www.w3.org/TR/2001/REC-SVG-20010904/DTD/svg10.dtd">
<svg version="1.0" xmlns="http://www.w3.org/2000/svg"
 width="225.000000pt" height="225.000000pt" viewBox="0 0 225.000000 225.000000"
 preserveAspectRatio="xMidYMid meet">

<g transform="translate(0.000000,225.000000) scale(0.100000,-0.100000)"
fill="#FFFFFF" stroke="none">
<path d="M1025 2243 c-261 -21 -537 -157 -719 -355 -408 -440 -402 -1114 13
-1541 164 -169 336 -266 576 -325 53 -13 111 -17 240 -16 212 1 309 24 490
113 297 148 506 406 592 728 23 86 26 118 27 268 1 186 -8 244 -64 396 -172
473 -648 774 -1155 732z m265 -133 c396 -62 730 -383 815 -783 43 -202 24
-397 -60 -597 -87 -210 -279 -409 -490 -510 -480 -229 -1052 -40 -1310 432
-142 261 -154 603 -30 883 68 153 225 334 372 429 109 70 248 125 371 146 69
11 257 11 332 0z"/>
<path d="M1585 1625 c-17 -9 -178 -163 -359 -344 l-329 -329 -108 108 c-81 82
-118 112 -147 119 -74 21 -150 -23 -173 -99 -21 -69 -2 -99 175 -278 88 -90
173 -170 188 -178 35 -18 101 -18 136 0 33 18 795 782 811 813 17 34 13 95 -9
131 -40 65 -119 89 -185 57z"/>
</g>
</svg>
